<?xml version="1.0" encoding="UTF-8" standalone="no"?>
<svg
   xmlns:dc="http://purl.org/dc/elements/1.1/"
   xmlns:cc="http://creativecommons.org/ns#"
   xmlns:rdf="http://www.w3.org/1999/02/22-rdf-syntax-ns#"
   xmlns:svg="http://www.w3.org/2000/svg"
   xmlns="http://www.w3.org/2000/svg"
   xmlns:sodipodi="http://sodipodi.sourceforge.net/DTD/sodipodi-0.dtd"
   xmlns:inkscape="http://www.inkscape.org/namespaces/inkscape"
   width="234.10133mm"
   height="128.5141mm"
   viewBox="0 0 234.10133 128.5141"
   version="1.1"
   id="svg8"
   inkscape:version="1.0.1 (1.0.1+r74)"
   sodipodi:docname="background.svg">
  <defs
     id="defs2">
    <inkscape:path-effect
       effect="bspline"
       id="path-effect1072"
       is_visible="true"
       lpeversion="1"
       weight="33.333333"
       steps="2"
       helper_size="0"
       apply_no_weight="true"
       apply_with_weight="true"
       only_selected="false" />
    <inkscape:path-effect
       effect="bspline"
       id="path-effect1070"
       is_visible="true"
       lpeversion="1"
       weight="33.333333"
       steps="2"
       helper_size="0"
       apply_no_weight="true"
       apply_with_weight="true"
       only_selected="false" />
    <inkscape:path-effect
       effect="bspline"
       id="path-effect1050"
       is_visible="true"
       lpeversion="1"
       weight="33.333333"
       steps="2"
       helper_size="0"
       apply_no_weight="true"
       apply_with_weight="true"
       only_selected="false" />
    <inkscape:path-effect
       effect="bspline"
       id="path-effect1044"
       is_visible="true"
       lpeversion="1"
       weight="33.333333"
       steps="2"
       helper_size="0"
       apply_no_weight="true"
       apply_with_weight="true"
       only_selected="false" />
    <inkscape:path-effect
       effect="bspline"
       id="path-effect1040"
       is_visible="true"
       lpeversion="1"
       weight="33.333333"
       steps="2"
       helper_size="0"
       apply_no_weight="true"
       apply_with_weight="true"
       only_selected="false" />
    <filter
       inkscape:collect="always"
       style="color-interpolation-filters:sRGB"
       id="filter1245"
       x="-0.25203401"
       width="1.504068"
       y="-0.25203401"
       height="1.504068">
      <feGaussianBlur
         inkscape:collect="always"
         stdDeviation="0.21366127"
         id="feGaussianBlur1247" />
    </filter>
  </defs>
  <sodipodi:namedview
     id="base"
     pagecolor="#ffffff"
     bordercolor="#666666"
     borderopacity="1.0"
     inkscape:pageopacity="0.0"
     inkscape:pageshadow="2"
     inkscape:zoom="0.89654655"
     inkscape:cx="600.81391"
     inkscape:cy="434.81568"
     inkscape:document-units="mm"
     inkscape:current-layer="layer1"
     inkscape:document-rotation="0"
     showgrid="false"
     inkscape:window-width="1920"
     inkscape:window-height="1050"
     inkscape:window-x="0"
     inkscape:window-y="0"
     inkscape:window-maximized="1"
     fit-margin-top="0"
     fit-margin-left="0"
     fit-margin-right="0"
     fit-margin-bottom="0" />
  <metadata
     id="metadata5">
    <rdf:RDF>
      <cc:Work
         rdf:about="">
        <dc:format>image/svg+xml</dc:format>
        <dc:type
           rdf:resource="http://purl.org/dc/dcmitype/StillImage" />
        <dc:title></dc:title>
      </cc:Work>
    </rdf:RDF>
  </metadata>
  <g
     inkscape:label="Layer 1"
     inkscape:groupmode="layer"
     id="layer1"
     transform="translate(15.488949,-184.4356)">
    <g
       id="g1545">
      <g
         id="g1068"
         style="opacity:0.342345;fill:#5296cd;fill-opacity:1"
         transform="matrix(-1,0,0,1.8166848,203.12344,-255.55659)">
        <path
           style="fill:#5296cd;fill-opacity:1;stroke:none;stroke-width:0.264583px;stroke-linecap:butt;stroke-linejoin:miter;stroke-opacity:1"
           d="m -13.358842,284.13272 c 2.054591,-2.16844 6.163781,-6.50531 9.9160403,-7.44929 3.75225923,-0.94397 7.1471535,1.50464 8.8896816,3.99978 1.742528,2.49515 1.8329235,5.03661 2.711616,5.67955 0.8786926,0.64295 2.5455791,-0.61235 4.5779621,-1.35565 2.032383,-0.74331 4.429937,-0.97462 6.47615,-0.58219 2.046212,0.39242 3.740887,1.40832 4.837568,2.62328 1.096682,1.21496 1.595506,2.62877 1.97529,4.39114 0.379785,1.76236 0.640594,3.87323 1.807408,3.62016 1.166814,-0.25307 3.239616,-2.86975 5.900086,-5.16218 2.66047,-2.29242 5.908332,-4.26039 9.648752,-5.3956 3.74042,-1.1352 7.972996,-1.43762 11.145746,-0.47195 3.17275,0.96567 5.2855,3.19907 7.155291,5.21935 1.86979,2.02028 3.496524,3.82733 4.404955,5.40166 0.90843,1.57434 1.098739,2.91588 1.580952,2.96605 0.482213,0.0502 1.256384,-1.19074 2.094315,-1.92652 0.837932,-0.73577 1.739338,-0.96623 2.660484,-0.96406 0.921145,0.002 1.861833,0.23682 2.549961,1.10027 0.688128,0.86344 1.123868,2.35534 1.549357,2.25621 0.425489,-0.0991 0.840834,-1.78919 1.433623,-3.23163 0.592789,-1.44244 1.362985,-2.63708 2.28176,-3.1493 0.918774,-0.51223 1.985737,-0.34203 2.885498,0.18912 0.899761,0.53115 1.632337,1.42298 1.906024,1.26592 0.273688,-0.15707 0.08868,-1.36299 -0.07212,-2.73795 -0.160801,-1.37497 -0.297367,-2.91889 0.0025,-4.02064 0.299885,-1.10176 1.036214,-1.76099 2.163148,-2.09061 1.126934,-0.32961 2.644161,-0.32961 3.535493,0.0899 0.891332,0.41945 1.156896,1.25802 1.801637,0.93772 0.64474,-0.3203 1.668745,-1.79914 3.284191,-3.13854 1.615446,-1.3394 3.822088,-2.53915 6.445915,-3.13902 2.62382,-0.59986 5.66449,-0.59986 8.45003,-0.008 2.78554,0.59226 5.31574,1.77661 7.02589,3.02306 1.71015,1.24645 2.60028,2.55479 3.14142,4.18517 0.54113,1.63038 0.73343,3.58271 1.54794,4.13681 0.81452,0.5541 2.25113,-0.28971 3.64802,-0.77909 1.39689,-0.48937 2.75382,-0.62431 4.7968,-0.35035 2.04298,0.27395 4.77178,0.95667 6.52045,2.14232 1.74868,1.18565 2.51733,2.87393 2.99585,4.43896 0.47851,1.56502 0.66699,3.00671 2.18067,3.13189 1.51368,0.12517 4.35235,-1.06582 6.21809,-3.11927 1.86573,-2.05345 2.7586,-4.96942 4.24207,-7.06971 1.48347,-2.1003 3.5573,-3.38458 5.89221,-4.3525 2.33491,-0.96792 4.93062,-1.61942 7.44816,-0.9025 2.51755,0.71692 4.95667,2.80192 6.51768,5.01292 1.56101,2.211 2.24404,4.54782 3.11645,4.59434 0.87241,0.0465 1.93428,-2.19698 2.81787,-3.55208 0.88359,-1.3551 1.58872,-1.82154 2.51346,-1.77097 0.92475,0.0506 2.0688,0.61797 2.71817,1.35208 0.64937,0.73412 0.8043,1.63479 1.14647,1.72236 0.34218,0.0876 0.87167,-0.63771 2.07622,-0.80994 1.20454,-0.17223 3.0837,0.20859 4.48344,0.94954 1.39973,0.74094 2.32001,1.84172 2.8183,2.96683 0.49829,1.12511 0.57477,2.2745 1.75681,1.36785 1.18205,-0.90665 3.46961,-3.86899 5.71727,-5.33624 2.24766,-1.46725 4.45497,-1.43932 6.48684,-0.50036 2.03187,0.93896 3.88817,2.78861 4.88111,2.57659 0.99294,-0.21202 1.12276,-2.48564 1.65766,-4.04318 0.5349,-1.55755 1.4748,-2.39867 2.0876,-2.34976 0.61279,0.0489 0.89834,0.98751 1.09693,5.67278 0.1986,4.68527 0.31032,13.11691 0.36618,17.3327 0.0559,4.21579 0.0559,4.21579 -0.54075,4.17755 -0.59661,-0.0383 -1.79007,-0.11475 -40.80774,-0.11476 -39.01767,-10e-6 -115.856421,0.0765 -154.2767,0.11475 -38.420279,0.0383 -38.420279,0.0383 -38.407692,-4.40087 0.01259,-4.43911 0.03776,-13.31726 0.05035,-17.75655 0.01259,-4.43928 0.01258,-4.43928 2.067174,-6.60771 z"
           id="path1060"
           inkscape:path-effect="#path-effect1070"
           inkscape:original-d="m -15.413432,286.30115 c 4.109452,-4.33661 8.2186387,-8.67349 12.3275609,-13.01062 3.39528903,2.44898 6.7901774,4.8976 10.1848694,7.34597 0.090664,2.54185 0.1810602,5.08331 0.2711934,7.62458 1.6672184,-1.25508 3.3341053,-2.51037 5.0007613,-3.76595 2.397914,-0.23106 4.795469,-0.46236 7.192806,-0.69392 1.695012,1.01621 3.389691,2.0321 5.08414,3.04776 0.499108,1.41414 0.997931,2.82795 1.4965,4.24151 0.261082,2.11119 0.521889,4.22206 0.782437,6.33269 2.073145,-2.61651 4.145944,-5.23319 6.218521,-7.85018 3.248257,-1.96779 6.496118,-3.93576 9.743783,-5.90402 4.233011,-0.30218 8.465587,-0.6046 12.697984,-0.90728 2.113097,2.23374 4.225848,4.46714 6.338374,6.70033 1.627055,1.80737 3.253782,3.61442 4.880277,5.42121 0.190579,1.34186 0.380889,2.6834 0.570936,4.02468 0.774467,-1.24071 1.548641,-2.48163 2.322563,-3.72285 0.901708,-0.23021 1.803117,-0.46066 2.70428,-0.6914 0.940996,0.23495 1.881687,0.4696 2.822133,0.704 0.436028,1.49225 0.871773,2.98415 1.307264,4.47585 0.415623,-1.68984 0.830969,-3.37989 1.246055,-5.07024 0.770488,-1.19441 1.540679,-2.38905 2.310622,-3.58396 1.067268,0.17047 2.134232,0.34067 3.20095,0.51062 0.732864,0.89212 1.465435,1.78395 2.197756,2.67551 -0.18475,-1.2057 -0.369755,-2.41162 -0.555032,-3.61783 -0.136308,-1.54371 -0.272873,-3.08763 -0.409707,-4.63185 0.736616,-0.65899 1.47294,-1.31823 2.209014,-1.97773 1.517549,2.6e-4 3.034776,2.6e-4 4.551767,0 0.265838,0.83886 0.5314,1.67743 0.796703,2.51574 1.024316,-1.47865 2.048325,-2.95749 3.07209,-4.43664 2.206993,-1.19954 4.413634,-2.3993 6.620051,-3.59934 3.04106,2.6e-4 6.08173,2.6e-4 9.1222,0 2.53056,1.18464 5.06075,2.369 7.59073,3.55309 0.89044,1.30865 1.78057,2.61699 2.67045,3.92507 0.19257,1.9527 0.38487,3.90503 0.5769,5.85716 1.43694,-0.8436 2.87355,-1.68741 4.30992,-2.53151 1.35726,-0.13467 2.71419,-0.26961 4.07089,-0.40481 2.72918,0.68302 5.45798,1.36572 8.18657,2.04819 0.76893,1.6886 1.53758,3.37688 2.30597,5.06492 0.18875,1.44203 0.37723,2.88372 0.56544,4.32519 2.83905,-1.19078 5.67773,-2.38175 8.51619,-3.57303 0.89318,-2.91585 1.78606,-5.83182 2.67869,-8.74813 2.07418,-1.28408 4.14802,-2.56834 6.22163,-3.85292 2.59609,-0.65127 5.1918,-1.30276 7.78731,-1.95456 2.43948,2.08534 4.8786,4.17034 7.3175,6.25512 0.68332,2.33715 1.36634,4.67397 2.04912,7.01056 1.06218,-2.24335 2.12406,-4.48685 3.18569,-6.73068 0.70543,-0.46622 1.41056,-0.93266 2.11544,-1.39938 1.14436,0.56766 2.28841,1.13506 3.43222,1.7022 0.15519,0.90095 0.31012,1.80162 0.46479,2.70205 0.52977,-0.72503 1.05926,-1.45031 1.5885,-2.17588 1.87951,0.38111 3.75867,0.76192 5.63761,1.14247 0.92059,1.10112 1.84088,2.20189 2.76093,3.30245 0.0767,1.14967 0.15322,2.29905 0.22944,3.44819 2.28792,-2.9622 4.57549,-5.92453 6.86284,-8.8872 2.20767,0.0282 4.41498,0.0561 6.62208,0.0838 1.85664,1.84999 3.71294,3.69964 5.56901,5.54905 0.13009,-2.27343 0.25991,-4.54705 0.38947,-6.82098 0.94021,-0.8409 1.88012,-1.68201 2.81979,-2.52344 0.28583,0.9389 0.57137,1.87751 0.85667,2.81586 0.11199,8.43224 0.22371,16.86388 0.33517,25.29543 2.6e-4,2.7e-4 2.7e-4,2.8e-4 0,3e-5 -1.19324,-0.0762 -2.3867,-0.15274 -3.58045,-0.22951 -76.84157,0.0768 -153.680321,0.15327 -230.520879,0.22951 2.65e-4,2.6e-4 2.65e-4,2.6e-4 0,0 0.02544,-8.87823 0.05061,-17.75638 0.07552,-26.63495 z"
           sodipodi:nodetypes="ccccccccccccccccccccccccccccccccccccccccccccccccccccccccccccccccc" />
        <rect
           style="fill:#5296cd;fill-opacity:1;stroke-width:0.165161;stroke-linecap:round;stroke-linejoin:round;stroke-dashoffset:4.45077;paint-order:fill markers stroke"
           id="rect1062"
           width="234.10133"
           height="11.368763"
           x="-15.488949"
           y="301.56735"
           ry="0" />
        <path
           style="fill:#5296cd;fill-opacity:1;stroke:none;stroke-width:0.264583px;stroke-linecap:butt;stroke-linejoin:miter;stroke-opacity:1"
           d="m -13.358842,284.13272 c 2.054591,-2.16844 6.163781,-6.50531 9.9160403,-7.44929 3.75225923,-0.94397 7.1471535,1.50464 8.8896816,3.99978 1.742528,2.49515 1.8329235,5.03661 2.711616,5.67955 0.8786926,0.64295 2.5455791,-0.61235 4.5779621,-1.35565 2.032383,-0.74331 4.429937,-0.97462 6.47615,-0.58219 2.046212,0.39242 3.740887,1.40832 4.837568,2.62328 1.096682,1.21496 1.595506,2.62877 1.97529,4.39114 0.379785,1.76236 0.640594,3.87323 1.807408,3.62016 1.166814,-0.25307 3.239616,-2.86975 5.900086,-5.16218 2.66047,-2.29242 5.908332,-4.26039 9.648752,-5.3956 3.74042,-1.1352 7.972996,-1.43762 11.145746,-0.47195 3.17275,0.96567 5.2855,3.19907 7.155291,5.21935 1.86979,2.02028 3.496524,3.82733 4.404955,5.40166 0.90843,1.57434 1.098739,2.91588 1.580952,2.96605 0.482213,0.0502 1.256384,-1.19074 2.094315,-1.92652 0.837932,-0.73577 1.739338,-0.96623 2.660484,-0.96406 0.921145,0.002 1.861833,0.23682 2.549961,1.10027 0.688128,0.86344 1.123868,2.35534 1.549357,2.25621 0.425489,-0.0991 0.840834,-1.78919 1.433623,-3.23163 0.592789,-1.44244 1.362985,-2.63708 2.28176,-3.1493 0.918774,-0.51223 1.985737,-0.34203 2.885498,0.18912 0.899761,0.53115 1.632337,1.42298 1.906024,1.26592 0.273688,-0.15707 0.08868,-1.36299 -0.07212,-2.73795 -0.160801,-1.37497 -0.297367,-2.91889 0.0025,-4.02064 0.299885,-1.10176 1.036214,-1.76099 2.163148,-2.09061 1.126934,-0.32961 2.644161,-0.32961 3.535493,0.0899 0.891332,0.41945 1.156896,1.25802 1.801637,0.93772 0.64474,-0.3203 1.668745,-1.79914 3.284191,-3.13854 1.615446,-1.3394 3.822088,-2.53915 6.445915,-3.13902 2.62382,-0.59986 5.66449,-0.59986 8.45003,-0.008 2.78554,0.59226 5.31574,1.77661 7.02589,3.02306 1.71015,1.24645 2.60028,2.55479 3.14142,4.18517 0.54113,1.63038 0.73343,3.58271 1.54794,4.13681 0.81452,0.5541 2.25113,-0.28971 3.64802,-0.77909 1.39689,-0.48937 2.75382,-0.62431 4.7968,-0.35035 2.04298,0.27395 4.77178,0.95667 6.52045,2.14232 1.74868,1.18565 2.51733,2.87393 2.99585,4.43896 0.47851,1.56502 0.66699,3.00671 2.18067,3.13189 1.51368,0.12517 4.35235,-1.06582 6.21809,-3.11927 1.86573,-2.05345 2.7586,-4.96942 4.24207,-7.06971 1.48347,-2.1003 3.5573,-3.38458 5.89221,-4.3525 2.33491,-0.96792 4.93062,-1.61942 7.44816,-0.9025 2.51755,0.71692 4.95667,2.80192 6.51768,5.01292 1.56101,2.211 2.24404,4.54782 3.11645,4.59434 0.87241,0.0465 1.93428,-2.19698 2.81787,-3.55208 0.88359,-1.3551 1.58872,-1.82154 2.51346,-1.77097 0.92475,0.0506 2.0688,0.61797 2.71817,1.35208 0.64937,0.73412 0.8043,1.63479 1.14647,1.72236 0.34218,0.0876 0.87167,-0.63771 2.07622,-0.80994 1.20454,-0.17223 3.0837,0.20859 4.48344,0.94954 1.39973,0.74094 2.32001,1.84172 2.8183,2.96683 0.49829,1.12511 0.57477,2.2745 1.75681,1.36785 1.18205,-0.90665 3.46961,-3.86899 5.71727,-5.33624 2.24766,-1.46725 4.45497,-1.43932 6.48684,-0.50036 2.03187,0.93896 3.88817,2.78861 4.88111,2.57659 0.99294,-0.21202 1.12276,-2.48564 1.65766,-4.04318 0.5349,-1.55755 1.4748,-2.39867 2.0876,-2.34976 0.61279,0.0489 0.89834,0.98751 1.09693,5.67278 0.1986,4.68527 0.31032,13.11691 0.36618,17.3327 0.0559,4.21579 0.0559,4.21579 -0.54075,4.17755 -0.59661,-0.0383 -1.79007,-0.11475 -40.80774,-0.11476 -39.01767,-10e-6 -115.856421,0.0765 -154.2767,0.11475 -38.420279,0.0383 -38.420279,0.0383 -38.407692,-4.40087 0.01259,-4.43911 0.03776,-13.31726 0.05035,-17.75655 0.01259,-4.43928 0.01258,-4.43928 2.067174,-6.60771 z"
           id="path1064"
           inkscape:path-effect="#path-effect1072"
           inkscape:original-d="m -15.413432,286.30115 c 4.109452,-4.33661 8.2186387,-8.67349 12.3275609,-13.01062 3.39528903,2.44898 6.7901774,4.8976 10.1848694,7.34597 0.090664,2.54185 0.1810602,5.08331 0.2711934,7.62458 1.6672184,-1.25508 3.3341053,-2.51037 5.0007613,-3.76595 2.397914,-0.23106 4.795469,-0.46236 7.192806,-0.69392 1.695012,1.01621 3.389691,2.0321 5.08414,3.04776 0.499108,1.41414 0.997931,2.82795 1.4965,4.24151 0.261082,2.11119 0.521889,4.22206 0.782437,6.33269 2.073145,-2.61651 4.145944,-5.23319 6.218521,-7.85018 3.248257,-1.96779 6.496118,-3.93576 9.743783,-5.90402 4.233011,-0.30218 8.465587,-0.6046 12.697984,-0.90728 2.113097,2.23374 4.225848,4.46714 6.338374,6.70033 1.627055,1.80737 3.253782,3.61442 4.880277,5.42121 0.190579,1.34186 0.380889,2.6834 0.570936,4.02468 0.774467,-1.24071 1.548641,-2.48163 2.322563,-3.72285 0.901708,-0.23021 1.803117,-0.46066 2.70428,-0.6914 0.940996,0.23495 1.881687,0.4696 2.822133,0.704 0.436028,1.49225 0.871773,2.98415 1.307264,4.47585 0.415623,-1.68984 0.830969,-3.37989 1.246055,-5.07024 0.770488,-1.19441 1.540679,-2.38905 2.310622,-3.58396 1.067268,0.17047 2.134232,0.34067 3.20095,0.51062 0.732864,0.89212 1.465435,1.78395 2.197756,2.67551 -0.18475,-1.2057 -0.369755,-2.41162 -0.555032,-3.61783 -0.136308,-1.54371 -0.272873,-3.08763 -0.409707,-4.63185 0.736616,-0.65899 1.47294,-1.31823 2.209014,-1.97773 1.517549,2.6e-4 3.034776,2.6e-4 4.551767,0 0.265838,0.83886 0.5314,1.67743 0.796703,2.51574 1.024316,-1.47865 2.048325,-2.95749 3.07209,-4.43664 2.206993,-1.19954 4.413634,-2.3993 6.620051,-3.59934 3.04106,2.6e-4 6.08173,2.6e-4 9.1222,0 2.53056,1.18464 5.06075,2.369 7.59073,3.55309 0.89044,1.30865 1.78057,2.61699 2.67045,3.92507 0.19257,1.9527 0.38487,3.90503 0.5769,5.85716 1.43694,-0.8436 2.87355,-1.68741 4.30992,-2.53151 1.35726,-0.13467 2.71419,-0.26961 4.07089,-0.40481 2.72918,0.68302 5.45798,1.36572 8.18657,2.04819 0.76893,1.6886 1.53758,3.37688 2.30597,5.06492 0.18875,1.44203 0.37723,2.88372 0.56544,4.32519 2.83905,-1.19078 5.67773,-2.38175 8.51619,-3.57303 0.89318,-2.91585 1.78606,-5.83182 2.67869,-8.74813 2.07418,-1.28408 4.14802,-2.56834 6.22163,-3.85292 2.59609,-0.65127 5.1918,-1.30276 7.78731,-1.95456 2.43948,2.08534 4.8786,4.17034 7.3175,6.25512 0.68332,2.33715 1.36634,4.67397 2.04912,7.01056 1.06218,-2.24335 2.12406,-4.48685 3.18569,-6.73068 0.70543,-0.46622 1.41056,-0.93266 2.11544,-1.39938 1.14436,0.56766 2.28841,1.13506 3.43222,1.7022 0.15519,0.90095 0.31012,1.80162 0.46479,2.70205 0.52977,-0.72503 1.05926,-1.45031 1.5885,-2.17588 1.87951,0.38111 3.75867,0.76192 5.63761,1.14247 0.92059,1.10112 1.84088,2.20189 2.76093,3.30245 0.0767,1.14967 0.15322,2.29905 0.22944,3.44819 2.28792,-2.9622 4.57549,-5.92453 6.86284,-8.8872 2.20767,0.0282 4.41498,0.0561 6.62208,0.0838 1.85664,1.84999 3.71294,3.69964 5.56901,5.54905 0.13009,-2.27343 0.25991,-4.54705 0.38947,-6.82098 0.94021,-0.8409 1.88012,-1.68201 2.81979,-2.52344 0.28583,0.9389 0.57137,1.87751 0.85667,2.81586 0.11199,8.43224 0.22371,16.86388 0.33517,25.29543 2.6e-4,2.7e-4 2.7e-4,2.8e-4 0,3e-5 -1.19324,-0.0762 -2.3867,-0.15274 -3.58045,-0.22951 -76.84157,0.0768 -153.680321,0.15327 -230.520879,0.22951 2.65e-4,2.6e-4 2.65e-4,2.6e-4 0,0 0.02544,-8.87823 0.05061,-17.75638 0.07552,-26.63495 z"
           sodipodi:nodetypes="ccccccccccccccccccccccccccccccccccccccccccccccccccccccccccccccccc" />
        <rect
           style="fill:#5296cd;fill-opacity:1;stroke-width:0.165161;stroke-linecap:round;stroke-linejoin:round;stroke-dashoffset:4.45077;paint-order:fill markers stroke"
           id="rect1066"
           width="234.10133"
           height="11.368763"
           x="-15.488949"
           y="301.56735"
           ry="0" />
      </g>
      <g
         id="g1058"
         style="opacity:0.342345;fill:#327988;fill-opacity:1">
        <path
           style="fill:#327988;fill-opacity:1;stroke:none;stroke-width:0.264583px;stroke-linecap:butt;stroke-linejoin:miter;stroke-opacity:1"
           d="m -13.358842,284.13272 c 2.054591,-2.16844 6.163781,-6.50531 9.9160403,-7.44929 3.75225923,-0.94397 7.1471535,1.50464 8.8896816,3.99978 1.742528,2.49515 1.8329235,5.03661 2.711616,5.67955 0.8786926,0.64295 2.5455791,-0.61235 4.5779621,-1.35565 2.032383,-0.74331 4.429937,-0.97462 6.47615,-0.58219 2.046212,0.39242 3.740887,1.40832 4.837568,2.62328 1.096682,1.21496 1.595506,2.62877 1.97529,4.39114 0.379785,1.76236 0.640594,3.87323 1.807408,3.62016 1.166814,-0.25307 3.239616,-2.86975 5.900086,-5.16218 2.66047,-2.29242 5.908332,-4.26039 9.648752,-5.3956 3.74042,-1.1352 7.972996,-1.43762 11.145746,-0.47195 3.17275,0.96567 5.2855,3.19907 7.155291,5.21935 1.86979,2.02028 3.496524,3.82733 4.404955,5.40166 0.90843,1.57434 1.098739,2.91588 1.580952,2.96605 0.482213,0.0502 1.256384,-1.19074 2.094315,-1.92652 0.837932,-0.73577 1.739338,-0.96623 2.660484,-0.96406 0.921145,0.002 1.861833,0.23682 2.549961,1.10027 0.688128,0.86344 1.123868,2.35534 1.549357,2.25621 0.425489,-0.0991 0.840834,-1.78919 1.433623,-3.23163 0.592789,-1.44244 1.362985,-2.63708 2.28176,-3.1493 0.918774,-0.51223 1.985737,-0.34203 2.885498,0.18912 0.899761,0.53115 1.632337,1.42298 1.906024,1.26592 0.273688,-0.15707 0.08868,-1.36299 -0.07212,-2.73795 -0.160801,-1.37497 -0.297367,-2.91889 0.0025,-4.02064 0.299885,-1.10176 1.036214,-1.76099 2.163148,-2.09061 1.126934,-0.32961 2.644161,-0.32961 3.535493,0.0899 0.891332,0.41945 1.156896,1.25802 1.801637,0.93772 0.64474,-0.3203 1.668745,-1.79914 3.284191,-3.13854 1.615446,-1.3394 3.822088,-2.53915 6.445915,-3.13902 2.62382,-0.59986 5.66449,-0.59986 8.45003,-0.008 2.78554,0.59226 5.31574,1.77661 7.02589,3.02306 1.71015,1.24645 2.60028,2.55479 3.14142,4.18517 0.54113,1.63038 0.73343,3.58271 1.54794,4.13681 0.81452,0.5541 2.25113,-0.28971 3.64802,-0.77909 1.39689,-0.48937 2.75382,-0.62431 4.7968,-0.35035 2.04298,0.27395 4.77178,0.95667 6.52045,2.14232 1.74868,1.18565 2.51733,2.87393 2.99585,4.43896 0.47851,1.56502 0.66699,3.00671 2.18067,3.13189 1.51368,0.12517 4.35235,-1.06582 6.21809,-3.11927 1.86573,-2.05345 2.7586,-4.96942 4.24207,-7.06971 1.48347,-2.1003 3.5573,-3.38458 5.89221,-4.3525 2.33491,-0.96792 4.93062,-1.61942 7.44816,-0.9025 2.51755,0.71692 4.95667,2.80192 6.51768,5.01292 1.56101,2.211 2.24404,4.54782 3.11645,4.59434 0.87241,0.0465 1.93428,-2.19698 2.81787,-3.55208 0.88359,-1.3551 1.58872,-1.82154 2.51346,-1.77097 0.92475,0.0506 2.0688,0.61797 2.71817,1.35208 0.64937,0.73412 0.8043,1.63479 1.14647,1.72236 0.34218,0.0876 0.87167,-0.63771 2.07622,-0.80994 1.20454,-0.17223 3.0837,0.20859 4.48344,0.94954 1.39973,0.74094 2.32001,1.84172 2.8183,2.96683 0.49829,1.12511 0.57477,2.2745 1.75681,1.36785 1.18205,-0.90665 3.46961,-3.86899 5.71727,-5.33624 2.24766,-1.46725 4.45497,-1.43932 6.48684,-0.50036 2.03187,0.93896 3.88817,2.78861 4.88111,2.57659 0.99294,-0.21202 1.12276,-2.48564 1.65766,-4.04318 0.5349,-1.55755 1.4748,-2.39867 2.0876,-2.34976 0.61279,0.0489 0.89834,0.98751 1.09693,5.67278 0.1986,4.68527 0.31032,13.11691 0.36618,17.3327 0.0559,4.21579 0.0559,4.21579 -0.54075,4.17755 -0.59661,-0.0383 -1.79007,-0.11475 -40.80774,-0.11476 -39.01767,-10e-6 -115.856421,0.0765 -154.2767,0.11475 -38.420279,0.0383 -38.420279,0.0383 -38.407692,-4.40087 0.01259,-4.43911 0.03776,-13.31726 0.05035,-17.75655 0.01259,-4.43928 0.01258,-4.43928 2.067174,-6.60771 z"
           id="path1042"
           inkscape:path-effect="#path-effect1044"
           inkscape:original-d="m -15.413432,286.30115 c 4.109452,-4.33661 8.2186387,-8.67349 12.3275609,-13.01062 3.39528903,2.44898 6.7901774,4.8976 10.1848694,7.34597 0.090664,2.54185 0.1810602,5.08331 0.2711934,7.62458 1.6672184,-1.25508 3.3341053,-2.51037 5.0007613,-3.76595 2.397914,-0.23106 4.795469,-0.46236 7.192806,-0.69392 1.695012,1.01621 3.389691,2.0321 5.08414,3.04776 0.499108,1.41414 0.997931,2.82795 1.4965,4.24151 0.261082,2.11119 0.521889,4.22206 0.782437,6.33269 2.073145,-2.61651 4.145944,-5.23319 6.218521,-7.85018 3.248257,-1.96779 6.496118,-3.93576 9.743783,-5.90402 4.233011,-0.30218 8.465587,-0.6046 12.697984,-0.90728 2.113097,2.23374 4.225848,4.46714 6.338374,6.70033 1.627055,1.80737 3.253782,3.61442 4.880277,5.42121 0.190579,1.34186 0.380889,2.6834 0.570936,4.02468 0.774467,-1.24071 1.548641,-2.48163 2.322563,-3.72285 0.901708,-0.23021 1.803117,-0.46066 2.70428,-0.6914 0.940996,0.23495 1.881687,0.4696 2.822133,0.704 0.436028,1.49225 0.871773,2.98415 1.307264,4.47585 0.415623,-1.68984 0.830969,-3.37989 1.246055,-5.07024 0.770488,-1.19441 1.540679,-2.38905 2.310622,-3.58396 1.067268,0.17047 2.134232,0.34067 3.20095,0.51062 0.732864,0.89212 1.465435,1.78395 2.197756,2.67551 -0.18475,-1.2057 -0.369755,-2.41162 -0.555032,-3.61783 -0.136308,-1.54371 -0.272873,-3.08763 -0.409707,-4.63185 0.736616,-0.65899 1.47294,-1.31823 2.209014,-1.97773 1.517549,2.6e-4 3.034776,2.6e-4 4.551767,0 0.265838,0.83886 0.5314,1.67743 0.796703,2.51574 1.024316,-1.47865 2.048325,-2.95749 3.07209,-4.43664 2.206993,-1.19954 4.413634,-2.3993 6.620051,-3.59934 3.04106,2.6e-4 6.08173,2.6e-4 9.1222,0 2.53056,1.18464 5.06075,2.369 7.59073,3.55309 0.89044,1.30865 1.78057,2.61699 2.67045,3.92507 0.19257,1.9527 0.38487,3.90503 0.5769,5.85716 1.43694,-0.8436 2.87355,-1.68741 4.30992,-2.53151 1.35726,-0.13467 2.71419,-0.26961 4.07089,-0.40481 2.72918,0.68302 5.45798,1.36572 8.18657,2.04819 0.76893,1.6886 1.53758,3.37688 2.30597,5.06492 0.18875,1.44203 0.37723,2.88372 0.56544,4.32519 2.83905,-1.19078 5.67773,-2.38175 8.51619,-3.57303 0.89318,-2.91585 1.78606,-5.83182 2.67869,-8.74813 2.07418,-1.28408 4.14802,-2.56834 6.22163,-3.85292 2.59609,-0.65127 5.1918,-1.30276 7.78731,-1.95456 2.43948,2.08534 4.8786,4.17034 7.3175,6.25512 0.68332,2.33715 1.36634,4.67397 2.04912,7.01056 1.06218,-2.24335 2.12406,-4.48685 3.18569,-6.73068 0.70543,-0.46622 1.41056,-0.93266 2.11544,-1.39938 1.14436,0.56766 2.28841,1.13506 3.43222,1.7022 0.15519,0.90095 0.31012,1.80162 0.46479,2.70205 0.52977,-0.72503 1.05926,-1.45031 1.5885,-2.17588 1.87951,0.38111 3.75867,0.76192 5.63761,1.14247 0.92059,1.10112 1.84088,2.20189 2.76093,3.30245 0.0767,1.14967 0.15322,2.29905 0.22944,3.44819 2.28792,-2.9622 4.57549,-5.92453 6.86284,-8.8872 2.20767,0.0282 4.41498,0.0561 6.62208,0.0838 1.85664,1.84999 3.71294,3.69964 5.56901,5.54905 0.13009,-2.27343 0.25991,-4.54705 0.38947,-6.82098 0.94021,-0.8409 1.88012,-1.68201 2.81979,-2.52344 0.28583,0.9389 0.57137,1.87751 0.85667,2.81586 0.11199,8.43224 0.22371,16.86388 0.33517,25.29543 2.6e-4,2.7e-4 2.7e-4,2.8e-4 0,3e-5 -1.19324,-0.0762 -2.3867,-0.15274 -3.58045,-0.22951 -76.84157,0.0768 -153.680321,0.15327 -230.520879,0.22951 2.65e-4,2.6e-4 2.65e-4,2.6e-4 0,0 0.02544,-8.87823 0.05061,-17.75638 0.07552,-26.63495 z"
           sodipodi:nodetypes="ccccccccccccccccccccccccccccccccccccccccccccccccccccccccccccccccc" />
        <rect
           style="fill:#327988;fill-opacity:1;stroke-width:0.165161;stroke-linecap:round;stroke-linejoin:round;stroke-dashoffset:4.45077;paint-order:fill markers stroke"
           id="rect1046"
           width="234.10133"
           height="11.368763"
           x="-15.488949"
           y="301.56735"
           ry="0" />
        <path
           style="fill:#327988;fill-opacity:1;stroke:none;stroke-width:0.264583px;stroke-linecap:butt;stroke-linejoin:miter;stroke-opacity:1"
           d="m -13.358842,284.13272 c 2.054591,-2.16844 6.163781,-6.50531 9.9160403,-7.44929 3.75225923,-0.94397 7.1471535,1.50464 8.8896816,3.99978 1.742528,2.49515 1.8329235,5.03661 2.711616,5.67955 0.8786926,0.64295 2.5455791,-0.61235 4.5779621,-1.35565 2.032383,-0.74331 4.429937,-0.97462 6.47615,-0.58219 2.046212,0.39242 3.740887,1.40832 4.837568,2.62328 1.096682,1.21496 1.595506,2.62877 1.97529,4.39114 0.379785,1.76236 0.640594,3.87323 1.807408,3.62016 1.166814,-0.25307 3.239616,-2.86975 5.900086,-5.16218 2.66047,-2.29242 5.908332,-4.26039 9.648752,-5.3956 3.74042,-1.1352 7.972996,-1.43762 11.145746,-0.47195 3.17275,0.96567 5.2855,3.19907 7.155291,5.21935 1.86979,2.02028 3.496524,3.82733 4.404955,5.40166 0.90843,1.57434 1.098739,2.91588 1.580952,2.96605 0.482213,0.0502 1.256384,-1.19074 2.094315,-1.92652 0.837932,-0.73577 1.739338,-0.96623 2.660484,-0.96406 0.921145,0.002 1.861833,0.23682 2.549961,1.10027 0.688128,0.86344 1.123868,2.35534 1.549357,2.25621 0.425489,-0.0991 0.840834,-1.78919 1.433623,-3.23163 0.592789,-1.44244 1.362985,-2.63708 2.28176,-3.1493 0.918774,-0.51223 1.985737,-0.34203 2.885498,0.18912 0.899761,0.53115 1.632337,1.42298 1.906024,1.26592 0.273688,-0.15707 0.08868,-1.36299 -0.07212,-2.73795 -0.160801,-1.37497 -0.297367,-2.91889 0.0025,-4.02064 0.299885,-1.10176 1.036214,-1.76099 2.163148,-2.09061 1.126934,-0.32961 2.644161,-0.32961 3.535493,0.0899 0.891332,0.41945 1.156896,1.25802 1.801637,0.93772 0.64474,-0.3203 1.668745,-1.79914 3.284191,-3.13854 1.615446,-1.3394 3.822088,-2.53915 6.445915,-3.13902 2.62382,-0.59986 5.66449,-0.59986 8.45003,-0.008 2.78554,0.59226 5.31574,1.77661 7.02589,3.02306 1.71015,1.24645 2.60028,2.55479 3.14142,4.18517 0.54113,1.63038 0.73343,3.58271 1.54794,4.13681 0.81452,0.5541 2.25113,-0.28971 3.64802,-0.77909 1.39689,-0.48937 2.75382,-0.62431 4.7968,-0.35035 2.04298,0.27395 4.77178,0.95667 6.52045,2.14232 1.74868,1.18565 2.51733,2.87393 2.99585,4.43896 0.47851,1.56502 0.66699,3.00671 2.18067,3.13189 1.51368,0.12517 4.35235,-1.06582 6.21809,-3.11927 1.86573,-2.05345 2.7586,-4.96942 4.24207,-7.06971 1.48347,-2.1003 3.5573,-3.38458 5.89221,-4.3525 2.33491,-0.96792 4.93062,-1.61942 7.44816,-0.9025 2.51755,0.71692 4.95667,2.80192 6.51768,5.01292 1.56101,2.211 2.24404,4.54782 3.11645,4.59434 0.87241,0.0465 1.93428,-2.19698 2.81787,-3.55208 0.88359,-1.3551 1.58872,-1.82154 2.51346,-1.77097 0.92475,0.0506 2.0688,0.61797 2.71817,1.35208 0.64937,0.73412 0.8043,1.63479 1.14647,1.72236 0.34218,0.0876 0.87167,-0.63771 2.07622,-0.80994 1.20454,-0.17223 3.0837,0.20859 4.48344,0.94954 1.39973,0.74094 2.32001,1.84172 2.8183,2.96683 0.49829,1.12511 0.57477,2.2745 1.75681,1.36785 1.18205,-0.90665 3.46961,-3.86899 5.71727,-5.33624 2.24766,-1.46725 4.45497,-1.43932 6.48684,-0.50036 2.03187,0.93896 3.88817,2.78861 4.88111,2.57659 0.99294,-0.21202 1.12276,-2.48564 1.65766,-4.04318 0.5349,-1.55755 1.4748,-2.39867 2.0876,-2.34976 0.61279,0.0489 0.89834,0.98751 1.09693,5.67278 0.1986,4.68527 0.31032,13.11691 0.36618,17.3327 0.0559,4.21579 0.0559,4.21579 -0.54075,4.17755 -0.59661,-0.0383 -1.79007,-0.11475 -40.80774,-0.11476 -39.01767,-10e-6 -115.856421,0.0765 -154.2767,0.11475 -38.420279,0.0383 -38.420279,0.0383 -38.407692,-4.40087 0.01259,-4.43911 0.03776,-13.31726 0.05035,-17.75655 0.01259,-4.43928 0.01258,-4.43928 2.067174,-6.60771 z"
           id="path1048"
           inkscape:path-effect="#path-effect1050"
           inkscape:original-d="m -15.413432,286.30115 c 4.109452,-4.33661 8.2186387,-8.67349 12.3275609,-13.01062 3.39528903,2.44898 6.7901774,4.8976 10.1848694,7.34597 0.090664,2.54185 0.1810602,5.08331 0.2711934,7.62458 1.6672184,-1.25508 3.3341053,-2.51037 5.0007613,-3.76595 2.397914,-0.23106 4.795469,-0.46236 7.192806,-0.69392 1.695012,1.01621 3.389691,2.0321 5.08414,3.04776 0.499108,1.41414 0.997931,2.82795 1.4965,4.24151 0.261082,2.11119 0.521889,4.22206 0.782437,6.33269 2.073145,-2.61651 4.145944,-5.23319 6.218521,-7.85018 3.248257,-1.96779 6.496118,-3.93576 9.743783,-5.90402 4.233011,-0.30218 8.465587,-0.6046 12.697984,-0.90728 2.113097,2.23374 4.225848,4.46714 6.338374,6.70033 1.627055,1.80737 3.253782,3.61442 4.880277,5.42121 0.190579,1.34186 0.380889,2.6834 0.570936,4.02468 0.774467,-1.24071 1.548641,-2.48163 2.322563,-3.72285 0.901708,-0.23021 1.803117,-0.46066 2.70428,-0.6914 0.940996,0.23495 1.881687,0.4696 2.822133,0.704 0.436028,1.49225 0.871773,2.98415 1.307264,4.47585 0.415623,-1.68984 0.830969,-3.37989 1.246055,-5.07024 0.770488,-1.19441 1.540679,-2.38905 2.310622,-3.58396 1.067268,0.17047 2.134232,0.34067 3.20095,0.51062 0.732864,0.89212 1.465435,1.78395 2.197756,2.67551 -0.18475,-1.2057 -0.369755,-2.41162 -0.555032,-3.61783 -0.136308,-1.54371 -0.272873,-3.08763 -0.409707,-4.63185 0.736616,-0.65899 1.47294,-1.31823 2.209014,-1.97773 1.517549,2.6e-4 3.034776,2.6e-4 4.551767,0 0.265838,0.83886 0.5314,1.67743 0.796703,2.51574 1.024316,-1.47865 2.048325,-2.95749 3.07209,-4.43664 2.206993,-1.19954 4.413634,-2.3993 6.620051,-3.59934 3.04106,2.6e-4 6.08173,2.6e-4 9.1222,0 2.53056,1.18464 5.06075,2.369 7.59073,3.55309 0.89044,1.30865 1.78057,2.61699 2.67045,3.92507 0.19257,1.9527 0.38487,3.90503 0.5769,5.85716 1.43694,-0.8436 2.87355,-1.68741 4.30992,-2.53151 1.35726,-0.13467 2.71419,-0.26961 4.07089,-0.40481 2.72918,0.68302 5.45798,1.36572 8.18657,2.04819 0.76893,1.6886 1.53758,3.37688 2.30597,5.06492 0.18875,1.44203 0.37723,2.88372 0.56544,4.32519 2.83905,-1.19078 5.67773,-2.38175 8.51619,-3.57303 0.89318,-2.91585 1.78606,-5.83182 2.67869,-8.74813 2.07418,-1.28408 4.14802,-2.56834 6.22163,-3.85292 2.59609,-0.65127 5.1918,-1.30276 7.78731,-1.95456 2.43948,2.08534 4.8786,4.17034 7.3175,6.25512 0.68332,2.33715 1.36634,4.67397 2.04912,7.01056 1.06218,-2.24335 2.12406,-4.48685 3.18569,-6.73068 0.70543,-0.46622 1.41056,-0.93266 2.11544,-1.39938 1.14436,0.56766 2.28841,1.13506 3.43222,1.7022 0.15519,0.90095 0.31012,1.80162 0.46479,2.70205 0.52977,-0.72503 1.05926,-1.45031 1.5885,-2.17588 1.87951,0.38111 3.75867,0.76192 5.63761,1.14247 0.92059,1.10112 1.84088,2.20189 2.76093,3.30245 0.0767,1.14967 0.15322,2.29905 0.22944,3.44819 2.28792,-2.9622 4.57549,-5.92453 6.86284,-8.8872 2.20767,0.0282 4.41498,0.0561 6.62208,0.0838 1.85664,1.84999 3.71294,3.69964 5.56901,5.54905 0.13009,-2.27343 0.25991,-4.54705 0.38947,-6.82098 0.94021,-0.8409 1.88012,-1.68201 2.81979,-2.52344 0.28583,0.9389 0.57137,1.87751 0.85667,2.81586 0.11199,8.43224 0.22371,16.86388 0.33517,25.29543 2.6e-4,2.7e-4 2.7e-4,2.8e-4 0,3e-5 -1.19324,-0.0762 -2.3867,-0.15274 -3.58045,-0.22951 -76.84157,0.0768 -153.680321,0.15327 -230.520879,0.22951 2.65e-4,2.6e-4 2.65e-4,2.6e-4 0,0 0.02544,-8.87823 0.05061,-17.75638 0.07552,-26.63495 z"
           sodipodi:nodetypes="ccccccccccccccccccccccccccccccccccccccccccccccccccccccccccccccccc" />
        <rect
           style="fill:#327988;fill-opacity:1;stroke-width:0.165161;stroke-linecap:round;stroke-linejoin:round;stroke-dashoffset:4.45077;paint-order:fill markers stroke"
           id="rect1052"
           width="234.10133"
           height="11.368763"
           x="-15.488949"
           y="301.56735"
           ry="0" />
      </g>
      <circle
         style="opacity:0.342345;fill:#5296cd;fill-opacity:1;stroke:none;stroke-width:0.564999;stroke-linecap:round;stroke-linejoin:round;stroke-dashoffset:4.45077;paint-order:fill markers stroke;filter:url(#filter1245)"
         id="path1087"
         cx="67.54435"
         cy="227.5016"
         r="1.0172973" />
      <circle
         style="opacity:0.342345;fill:#5296cd;fill-opacity:1;stroke:none;stroke-width:0.564999;stroke-linecap:round;stroke-linejoin:round;stroke-dashoffset:4.45077;paint-order:fill markers stroke;filter:url(#filter1245)"
         id="circle1249"
         cx="172.76152"
         cy="202.45366"
         r="1.0172973" />
      <circle
         style="opacity:0.342345;fill:#5296cd;fill-opacity:1;stroke:none;stroke-width:0.564999;stroke-linecap:round;stroke-linejoin:round;stroke-dashoffset:4.45077;paint-order:fill markers stroke;filter:url(#filter1245)"
         id="circle1251"
         cx="170.09915"
         cy="238.14352"
         r="1.0172973" />
      <circle
         style="opacity:0.342345;fill:#5296cd;fill-opacity:1;stroke:none;stroke-width:0.564999;stroke-linecap:round;stroke-linejoin:round;stroke-dashoffset:4.45077;paint-order:fill markers stroke;filter:url(#filter1245)"
         id="circle1253"
         cx="14.708523"
         cy="191.52849"
         r="1.0172973" />
      <circle
         style="opacity:0.342345;fill:#5296cd;fill-opacity:1;stroke:none;stroke-width:0.564999;stroke-linecap:round;stroke-linejoin:round;stroke-dashoffset:4.45077;paint-order:fill markers stroke;filter:url(#filter1245)"
         id="circle1255"
         cx="14.708523"
         cy="191.52849"
         r="1.0172973" />
      <circle
         style="opacity:0.342345;fill:#5296cd;fill-opacity:1;stroke:none;stroke-width:0.564999;stroke-linecap:round;stroke-linejoin:round;stroke-dashoffset:4.45077;paint-order:fill markers stroke;filter:url(#filter1245)"
         id="circle1257"
         cx="25.169382"
         cy="243.16183"
         r="1.0172973" />
      <circle
         style="opacity:0.342345;fill:#5296cd;fill-opacity:1;stroke:none;stroke-width:0.564999;stroke-linecap:round;stroke-linejoin:round;stroke-dashoffset:4.45077;paint-order:fill markers stroke;filter:url(#filter1245)"
         id="circle1259"
         cx="25.169382"
         cy="243.16183"
         r="1.0172973" />
      <circle
         style="opacity:0.342345;fill:#5296cd;fill-opacity:1;stroke:none;stroke-width:0.564999;stroke-linecap:round;stroke-linejoin:round;stroke-dashoffset:4.45077;paint-order:fill markers stroke;filter:url(#filter1245)"
         id="circle1261"
         cx="25.169382"
         cy="243.16183"
         r="1.0172973" />
      <circle
         style="opacity:0.342345;fill:#5296cd;fill-opacity:1;stroke:none;stroke-width:0.564999;stroke-linecap:round;stroke-linejoin:round;stroke-dashoffset:4.45077;paint-order:fill markers stroke;filter:url(#filter1245)"
         id="circle1263"
         cx="135.40045"
         cy="260.45819"
         r="1.0172973" />
      <circle
         style="opacity:0.342345;fill:#5296cd;fill-opacity:1;stroke:none;stroke-width:0.564999;stroke-linecap:round;stroke-linejoin:round;stroke-dashoffset:4.45077;paint-order:fill markers stroke;filter:url(#filter1245)"
         id="circle1265"
         cx="61.325672"
         cy="265.98206"
         r="1.0172973" />
      <circle
         style="opacity:0.342345;fill:#5296cd;fill-opacity:1;stroke:none;stroke-width:0.564999;stroke-linecap:round;stroke-linejoin:round;stroke-dashoffset:4.45077;paint-order:fill markers stroke;filter:url(#filter1245)"
         id="circle1267"
         cx="61.325672"
         cy="265.98206"
         r="1.0172973" />
      <circle
         style="opacity:0.342345;fill:#5296cd;fill-opacity:1;stroke:none;stroke-width:0.564999;stroke-linecap:round;stroke-linejoin:round;stroke-dashoffset:4.45077;paint-order:fill markers stroke;filter:url(#filter1245)"
         id="circle1287"
         cx="112.9192"
         cy="185.96568"
         r="1.0172973" />
      <circle
         style="opacity:0.342345;fill:#5296cd;fill-opacity:1;stroke:none;stroke-width:0.564999;stroke-linecap:round;stroke-linejoin:round;stroke-dashoffset:4.45077;paint-order:fill markers stroke;filter:url(#filter1245)"
         id="circle1289"
         cx="213.73511"
         cy="209.63777"
         r="1.0172973" />
      <circle
         style="opacity:0.342345;fill:#5296cd;fill-opacity:1;stroke:none;stroke-width:0.564999;stroke-linecap:round;stroke-linejoin:round;stroke-dashoffset:4.45077;paint-order:fill markers stroke;filter:url(#filter1245)"
         id="circle1291"
         cx="186.44394"
         cy="218.83353"
         r="1.0172973"
         transform="matrix(0.51013271,0,0,0.51013271,90.583248,106.44985)" />
      <circle
         style="opacity:0.342345;fill:#5296cd;fill-opacity:1;stroke:none;stroke-width:0.564999;stroke-linecap:round;stroke-linejoin:round;stroke-dashoffset:4.45077;paint-order:fill markers stroke;filter:url(#filter1245)"
         id="circle1293"
         cx="186.44394"
         cy="218.83353"
         r="1.0172973"
         transform="matrix(0.51013271,0,0,0.51013271,16.035316,106.64472)" />
      <circle
         style="opacity:0.342345;fill:#5296cd;fill-opacity:1;stroke:none;stroke-width:0.564999;stroke-linecap:round;stroke-linejoin:round;stroke-dashoffset:4.45077;paint-order:fill markers stroke;filter:url(#filter1245)"
         id="circle1295"
         cx="186.44394"
         cy="218.83353"
         r="1.0172973"
         transform="matrix(0.51013271,0,0,0.51013271,55.945562,78.391246)" />
      <circle
         style="opacity:0.342345;fill:#5296cd;fill-opacity:1;stroke:none;stroke-width:0.564999;stroke-linecap:round;stroke-linejoin:round;stroke-dashoffset:4.45077;paint-order:fill markers stroke;filter:url(#filter1245)"
         id="circle1297"
         cx="186.44394"
         cy="218.83353"
         r="1.0172973"
         transform="matrix(0.51013271,0,0,0.51013271,49.560114,113.00091)" />
      <circle
         style="opacity:0.342345;fill:#5296cd;fill-opacity:1;stroke:none;stroke-width:0.564999;stroke-linecap:round;stroke-linejoin:round;stroke-dashoffset:4.45077;paint-order:fill markers stroke;filter:url(#filter1245)"
         id="circle1299"
         cx="186.44394"
         cy="218.83353"
         r="1.0172973"
         transform="matrix(0.51013271,0,0,0.51013271,49.560114,96.264825)" />
      <circle
         style="opacity:0.342345;fill:#5296cd;fill-opacity:1;stroke:none;stroke-width:0.564999;stroke-linecap:round;stroke-linejoin:round;stroke-dashoffset:4.45077;paint-order:fill markers stroke;filter:url(#filter1245)"
         id="circle1301"
         cx="186.44394"
         cy="218.83353"
         r="1.0172973"
         transform="matrix(0.51013271,0,0,0.51013271,32.256771,94.844053)" />
      <circle
         style="opacity:0.342345;fill:#5296cd;fill-opacity:1;stroke:none;stroke-width:0.564999;stroke-linecap:round;stroke-linejoin:round;stroke-dashoffset:4.45077;paint-order:fill markers stroke;filter:url(#filter1245)"
         id="circle1303"
         cx="186.44394"
         cy="218.83353"
         r="1.0172973"
         transform="matrix(0.51013271,0,0,0.51013271,28.717451,127.50983)" />
      <circle
         style="opacity:0.342345;fill:#5296cd;fill-opacity:1;stroke:none;stroke-width:0.564999;stroke-linecap:round;stroke-linejoin:round;stroke-dashoffset:4.45077;paint-order:fill markers stroke;filter:url(#filter1245)"
         id="circle1305"
         cx="186.44394"
         cy="218.83353"
         r="1.0172973"
         transform="matrix(0.51013271,0,0,0.51013271,106.3311,125.2974)" />
      <circle
         style="opacity:0.342345;fill:#5296cd;fill-opacity:1;stroke:none;stroke-width:0.564999;stroke-linecap:round;stroke-linejoin:round;stroke-dashoffset:4.45077;paint-order:fill markers stroke;filter:url(#filter1245)"
         id="circle1307"
         cx="186.44394"
         cy="218.83353"
         r="1.0172973"
         transform="matrix(0.51013271,0,0,0.51013271,91.789378,137.33138)" />
      <circle
         style="opacity:0.342345;fill:#5296cd;fill-opacity:1;stroke:none;stroke-width:0.564999;stroke-linecap:round;stroke-linejoin:round;stroke-dashoffset:4.45077;paint-order:fill markers stroke;filter:url(#filter1245)"
         id="circle1309"
         cx="186.44394"
         cy="218.83353"
         r="1.0172973"
         transform="matrix(0.51013271,0,0,0.51013271,78.513474,147.56336)" />
      <circle
         style="opacity:0.342345;fill:#5296cd;fill-opacity:1;stroke:none;stroke-width:0.564999;stroke-linecap:round;stroke-linejoin:round;stroke-dashoffset:4.45077;paint-order:fill markers stroke;filter:url(#filter1245)"
         id="circle1311"
         cx="186.44394"
         cy="218.83353"
         r="1.0172973"
         transform="matrix(0.51013271,0,0,0.51013271,-6.765532,84.745923)" />
      <circle
         style="opacity:0.342345;fill:#5296cd;fill-opacity:1;stroke:none;stroke-width:0.564999;stroke-linecap:round;stroke-linejoin:round;stroke-dashoffset:4.45077;paint-order:fill markers stroke;filter:url(#filter1245)"
         id="circle1313"
         cx="186.44394"
         cy="218.83353"
         r="1.0172973"
         transform="matrix(0.51013271,0,0,0.51013271,-6.765532,84.745923)" />
      <circle
         style="opacity:0.342345;fill:#5296cd;fill-opacity:1;stroke:none;stroke-width:0.564999;stroke-linecap:round;stroke-linejoin:round;stroke-dashoffset:4.45077;paint-order:fill markers stroke;filter:url(#filter1245)"
         id="circle1315"
         cx="56.709812"
         cy="198.40193"
         r="1.0172973" />
      <circle
         style="opacity:0.342345;fill:#5296cd;fill-opacity:1;stroke:none;stroke-width:0.564999;stroke-linecap:round;stroke-linejoin:round;stroke-dashoffset:4.45077;paint-order:fill markers stroke;filter:url(#filter1245)"
         id="circle1317"
         cx="54.047443"
         cy="234.0918"
         r="1.0172973" />
      <circle
         style="opacity:0.342345;fill:#5296cd;fill-opacity:1;stroke:none;stroke-width:0.564999;stroke-linecap:round;stroke-linejoin:round;stroke-dashoffset:4.45077;paint-order:fill markers stroke;filter:url(#filter1245)"
         id="circle1319"
         cx="97.683395"
         cy="205.58604"
         r="1.0172973" />
      <circle
         style="opacity:0.342345;fill:#5296cd;fill-opacity:1;stroke:none;stroke-width:0.564999;stroke-linecap:round;stroke-linejoin:round;stroke-dashoffset:4.45077;paint-order:fill markers stroke;filter:url(#filter1245)"
         id="circle1321"
         cx="186.44394"
         cy="218.83353"
         r="1.0172973"
         transform="matrix(0.51013271,0,0,0.51013271,-25.468462,102.39813)" />
      <circle
         style="opacity:0.342345;fill:#5296cd;fill-opacity:1;stroke:none;stroke-width:0.564999;stroke-linecap:round;stroke-linejoin:round;stroke-dashoffset:4.45077;paint-order:fill markers stroke;filter:url(#filter1245)"
         id="circle1323"
         cx="186.44394"
         cy="218.83353"
         r="1.0172973"
         transform="matrix(0.51013271,0,0,0.51013271,-100.01639,102.593)" />
      <circle
         style="opacity:0.342345;fill:#5296cd;fill-opacity:1;stroke:none;stroke-width:0.564999;stroke-linecap:round;stroke-linejoin:round;stroke-dashoffset:4.45077;paint-order:fill markers stroke;filter:url(#filter1245)"
         id="circle1325"
         cx="186.44394"
         cy="218.83353"
         r="1.0172973"
         transform="matrix(0.51013271,0,0,0.51013271,-66.491596,108.94919)" />
      <circle
         style="opacity:0.342345;fill:#5296cd;fill-opacity:1;stroke:none;stroke-width:0.564999;stroke-linecap:round;stroke-linejoin:round;stroke-dashoffset:4.45077;paint-order:fill markers stroke;filter:url(#filter1245)"
         id="circle1327"
         cx="186.44394"
         cy="218.83353"
         r="1.0172973"
         transform="matrix(0.51013271,0,0,0.51013271,-66.491596,92.213104)" />
      <circle
         style="opacity:0.342345;fill:#5296cd;fill-opacity:1;stroke:none;stroke-width:0.564999;stroke-linecap:round;stroke-linejoin:round;stroke-dashoffset:4.45077;paint-order:fill markers stroke;filter:url(#filter1245)"
         id="circle1329"
         cx="186.44394"
         cy="218.83353"
         r="1.0172973"
         transform="matrix(0.51013271,0,0,0.51013271,-83.794939,90.792332)" />
      <circle
         style="opacity:0.342345;fill:#5296cd;fill-opacity:1;stroke:none;stroke-width:0.564999;stroke-linecap:round;stroke-linejoin:round;stroke-dashoffset:4.45077;paint-order:fill markers stroke;filter:url(#filter1245)"
         id="circle1331"
         cx="186.44394"
         cy="218.83353"
         r="1.0172973"
         transform="matrix(0.51013271,0,0,0.51013271,-87.334259,123.45811)" />
      <circle
         style="opacity:0.342345;fill:#5296cd;fill-opacity:1;stroke:none;stroke-width:0.564999;stroke-linecap:round;stroke-linejoin:round;stroke-dashoffset:4.45077;paint-order:fill markers stroke;filter:url(#filter1245)"
         id="circle1333"
         cx="186.44394"
         cy="218.83353"
         r="1.0172973"
         transform="matrix(0.51013271,0,0,0.51013271,-9.7206098,121.24568)" />
      <circle
         style="opacity:0.342345;fill:#5296cd;fill-opacity:1;stroke:none;stroke-width:0.564999;stroke-linecap:round;stroke-linejoin:round;stroke-dashoffset:4.45077;paint-order:fill markers stroke;filter:url(#filter1245)"
         id="circle1335"
         cx="55.933105"
         cy="220.88736"
         r="1.0172973" />
      <circle
         style="opacity:0.342345;fill:#5296cd;fill-opacity:1;stroke:none;stroke-width:0.564999;stroke-linecap:round;stroke-linejoin:round;stroke-dashoffset:4.45077;paint-order:fill markers stroke;filter:url(#filter1245)"
         id="circle1337"
         cx="53.270737"
         cy="256.57721"
         r="1.0172973" />
      <circle
         style="opacity:0.342345;fill:#5296cd;fill-opacity:1;stroke:none;stroke-width:0.564999;stroke-linecap:round;stroke-linejoin:round;stroke-dashoffset:4.45077;paint-order:fill markers stroke;filter:url(#filter1245)"
         id="circle1339"
         cx="96.906693"
         cy="228.07147"
         r="1.0172973" />
      <circle
         style="opacity:0.342345;fill:#5296cd;fill-opacity:1;stroke:none;stroke-width:0.564999;stroke-linecap:round;stroke-linejoin:round;stroke-dashoffset:4.45077;paint-order:fill markers stroke;filter:url(#filter1245)"
         id="circle1341"
         cx="186.44394"
         cy="218.83353"
         r="1.0172973"
         transform="matrix(0.51013271,0,0,0.51013271,-26.245167,124.88355)" />
      <circle
         style="opacity:0.342345;fill:#5296cd;fill-opacity:1;stroke:none;stroke-width:0.564999;stroke-linecap:round;stroke-linejoin:round;stroke-dashoffset:4.45077;paint-order:fill markers stroke;filter:url(#filter1245)"
         id="circle1343"
         cx="186.44394"
         cy="218.83353"
         r="1.0172973"
         transform="matrix(0.51013271,0,0,0.51013271,-100.7931,125.07842)" />
      <circle
         style="opacity:0.342345;fill:#5296cd;fill-opacity:1;stroke:none;stroke-width:0.564999;stroke-linecap:round;stroke-linejoin:round;stroke-dashoffset:4.45077;paint-order:fill markers stroke;filter:url(#filter1245)"
         id="circle1345"
         cx="186.44394"
         cy="218.83353"
         r="1.0172973"
         transform="matrix(0.51013271,0,0,0.51013271,-67.268301,131.43461)" />
      <circle
         style="opacity:0.342345;fill:#5296cd;fill-opacity:1;stroke:none;stroke-width:0.564999;stroke-linecap:round;stroke-linejoin:round;stroke-dashoffset:4.45077;paint-order:fill markers stroke;filter:url(#filter1245)"
         id="circle1347"
         cx="186.44394"
         cy="218.83353"
         r="1.0172973"
         transform="matrix(0.51013271,0,0,0.51013271,-67.268301,114.69853)" />
      <circle
         style="opacity:0.342345;fill:#5296cd;fill-opacity:1;stroke:none;stroke-width:0.564999;stroke-linecap:round;stroke-linejoin:round;stroke-dashoffset:4.45077;paint-order:fill markers stroke;filter:url(#filter1245)"
         id="circle1349"
         cx="186.44394"
         cy="218.83353"
         r="1.0172973"
         transform="matrix(0.51013271,0,0,0.51013271,-84.571644,113.27775)" />
      <circle
         style="opacity:0.342345;fill:#5296cd;fill-opacity:1;stroke:none;stroke-width:0.564999;stroke-linecap:round;stroke-linejoin:round;stroke-dashoffset:4.45077;paint-order:fill markers stroke;filter:url(#filter1245)"
         id="circle1351"
         cx="186.44394"
         cy="218.83353"
         r="1.0172973"
         transform="matrix(0.51013271,0,0,0.51013271,-88.110964,145.94353)" />
      <circle
         style="opacity:0.342345;fill:#5296cd;fill-opacity:1;stroke:none;stroke-width:0.564999;stroke-linecap:round;stroke-linejoin:round;stroke-dashoffset:4.45077;paint-order:fill markers stroke;filter:url(#filter1245)"
         id="circle1353"
         cx="186.44394"
         cy="218.83353"
         r="1.0172973"
         transform="matrix(0.51013271,0,0,0.51013271,-10.497315,143.7311)" />
    </g>
  </g>
</svg>
