<?xml version="1.0" encoding="UTF-8" standalone="no"?>
<svg
   xmlns:dc="http://purl.org/dc/elements/1.1/"
   xmlns:cc="http://creativecommons.org/ns#"
   xmlns:rdf="http://www.w3.org/1999/02/22-rdf-syntax-ns#"
   xmlns:svg="http://www.w3.org/2000/svg"
   xmlns="http://www.w3.org/2000/svg"
   xmlns:sodipodi="http://sodipodi.sourceforge.net/DTD/sodipodi-0.dtd"
   xmlns:inkscape="http://www.inkscape.org/namespaces/inkscape"
   width="70.679688mm"
   height="67.511269mm"
   viewBox="0 0 70.679688 67.511269"
   version="1.1"
   id="svg8"
   inkscape:version="1.0.1 (1.0.1+r74)"
   sodipodi:docname="star.svg">
  <defs
     id="defs2" />
  <sodipodi:namedview
     id="base"
     pagecolor="#ffffff"
     bordercolor="#666666"
     borderopacity="1.0"
     inkscape:pageopacity="0.0"
     inkscape:pageshadow="2"
     inkscape:zoom="0.44827327"
     inkscape:cx="-438.15553"
     inkscape:cy="-37.243065"
     inkscape:document-units="mm"
     inkscape:current-layer="g850"
     inkscape:document-rotation="0"
     showgrid="false"
     fit-margin-top="0"
     fit-margin-left="0"
     fit-margin-right="0"
     fit-margin-bottom="0"
     inkscape:window-width="1920"
     inkscape:window-height="1050"
     inkscape:window-x="1920"
     inkscape:window-y="0"
     inkscape:window-maximized="1" />
  <metadata
     id="metadata5">
    <rdf:RDF>
      <cc:Work
         rdf:about="">
        <dc:format>image/svg+xml</dc:format>
        <dc:type
           rdf:resource="http://purl.org/dc/dcmitype/StillImage" />
        <dc:title></dc:title>
      </cc:Work>
    </rdf:RDF>
  </metadata>
  <g
     inkscape:label="Layer 1"
     inkscape:groupmode="layer"
     id="layer1"
     transform="translate(-60.037142,-65.690122)">
    <g
       id="g850"
       transform="rotate(-45,95.376984,105.00845)">
      <g
         id="g898">
        <path
           sodipodi:type="star"
           style="fill:#5dc5cd;fill-opacity:1;stroke:#28306d;stroke-width:3.833;stroke-linecap:round;stroke-linejoin:round;stroke-miterlimit:4;stroke-dasharray:none;stroke-dashoffset:74.2677;stroke-opacity:1;paint-order:fill markers stroke"
           id="path833"
           sodipodi:sides="5"
           sodipodi:cx="97.018257"
           sodipodi:cy="103.36718"
           sodipodi:r1="35.080719"
           sodipodi:r2="17.680683"
           sodipodi:arg1="-0.78539816"
           sodipodi:arg2="-0.15707963"
           inkscape:flatsided="false"
           inkscape:rounded="0.14"
           inkscape:randomized="0"
           inkscape:transform-center-x="4.2727314"
           inkscape:transform-center-y="4.2727293"
           d="m 121.82407,78.561366 c 2.29975,2.299744 -7.85158,18.827657 -7.34281,22.039944 0.50878,3.21229 15.27067,15.79434 13.79415,18.69218 -1.47653,2.89785 -20.33244,-1.64923 -23.23029,-0.17271 -2.89785,1.47653 -10.302408,19.40399 -13.514696,18.89522 -3.212289,-0.50878 -4.714553,-19.84694 -7.014298,-22.14669 C 82.216381,113.56957 62.878217,112.0673 62.36944,108.85501 61.860663,105.64272 79.788126,98.238165 81.264653,95.340318 82.74118,92.44247 78.194097,73.586557 81.091944,72.11003 c 2.897847,-1.476527 15.479893,13.285369 18.692181,13.794145 3.212285,0.508777 19.740205,-9.642554 22.039945,-7.342809 z" />
        <path
           id="path835"
           style="opacity:0.545799;fill:#1a5357;fill-opacity:1;stroke:none;stroke-width:3.25188;stroke-linecap:round;stroke-linejoin:round;stroke-miterlimit:4;stroke-dasharray:none;stroke-dashoffset:74.2677;stroke-opacity:1;paint-order:fill markers stroke"
           inkscape:transform-center-x="3.6249529"
           inkscape:transform-center-y="3.6249501"
           d="m 77.731137,100.87204 c -4.712981,2.67219 -10.500446,5.74527 -10.231821,7.44128 0.431646,2.72528 16.83824,3.99958 18.789323,5.95066 1.95109,1.95108 3.225378,18.35768 5.950661,18.78932 1.8737,0.29678 5.428709,-6.8 8.26639,-11.67114 -1.499485,-7.30624 -2.954489,-13.71284 -4.631021,-15.37755 -1.87436,-1.86112 -9.734938,-3.4518 -18.143532,-5.13257 z" />
      </g>
    </g>
  </g>
</svg>
